<svg id="Capa_1" data-name="Capa 1" xmlns="http://www.w3.org/2000/svg" viewBox="0 0 161.87 36.25"><defs><style>.cls-1{fill:#86888c;}</style></defs><path class="cls-1" d="M160.42,13.34h-.84L158.94,12h-.53v1.32h-.71V10H159c.78,0,1.07.23,1.07.76a1,1,0,0,1-.65.89v.09a.43.43,0,0,1,.34.25C160,12.44,160.21,12.89,160.42,13.34Zm-1.53-2.77h-.48v.91h.39a.49.49,0,0,0,.5-.51C159.3,10.66,159.21,10.57,158.89,10.57Z" transform="translate(0 -8.75)"/><path class="cls-1" d="M158.87,8.75a3,3,0,1,0,3,3A3,3,0,0,0,158.87,8.75Zm0,5.55a2.55,2.55,0,1,1,2.55-2.55A2.55,2.55,0,0,1,158.87,14.3Z" transform="translate(0 -8.75)"/><path class="cls-1" d="M156.78,41.08a2.14,2.14,0,0,0-1.23-.38h-5.36A3.22,3.22,0,0,1,147,37.48V12.15a2.14,2.14,0,1,0-4.28,0V37.48a7.48,7.48,0,0,0,.71,3.22c.07.14.14.26.21.38a7.21,7.21,0,0,0,1.33,1.77,7.13,7.13,0,0,0,1.65,1.22,7.41,7.41,0,0,0,3.6.92h5.36a2.14,2.14,0,0,0,2.15-2.14A2.18,2.18,0,0,0,156.78,41.08Z" transform="translate(0 -8.75)"/><path class="cls-1" d="M135.07,12.15a7.19,7.19,0,0,0-1.66-1.22A7.41,7.41,0,0,0,130,10h-.43a7.49,7.49,0,0,0-3.39.92,7.58,7.58,0,0,0-1.65,1.22,7.66,7.66,0,0,0-1.34,1.76,7.38,7.38,0,0,0-.92,3.6V42.85a2.15,2.15,0,0,0,4.3,0V29.65H133v13.2a2.15,2.15,0,0,0,4.29,0V17.51a7.38,7.38,0,0,0-.92-3.6A7.62,7.62,0,0,0,135.07,12.15Zm-8.47,13.2V17.51a3.22,3.22,0,1,1,6.43,0v7.84Z" transform="translate(0 -8.75)"/><path class="cls-1" d="M114.69,12.15A7.89,7.89,0,0,0,113,10.93a7.49,7.49,0,0,0-3.39-.92h-.43a7.45,7.45,0,0,0-3.39.92,7.35,7.35,0,0,0-1.65,1.22l-.11.11-.11-.11a7.13,7.13,0,0,0-1.65-1.22A7.45,7.45,0,0,0,98.92,10h-.44a7.54,7.54,0,0,0-5,2.14,7.91,7.91,0,0,0-1.33,1.76,7.49,7.49,0,0,0-.92,3.6V42.85a2.15,2.15,0,0,0,4.29,0V17.51a3.22,3.22,0,0,1,6.44,0V42.85a2.14,2.14,0,1,0,4.28,0V17.51a3.22,3.22,0,1,1,6.44,0V42.85a2.15,2.15,0,0,0,4.3,0V17.51a7.38,7.38,0,0,0-.92-3.6A7.91,7.91,0,0,0,114.69,12.15Z" transform="translate(0 -8.75)"/><path class="cls-1" d="M83.69,10a2.15,2.15,0,0,0-2.16,2.14v30.7a2.15,2.15,0,0,0,4.3,0V12.15A2.14,2.14,0,0,0,83.69,10Z" transform="translate(0 -8.75)"/><path class="cls-1" d="M74,10a2.14,2.14,0,0,0-2.15,2.14V37.48a3.22,3.22,0,1,1-6.43,0V12.15a2.15,2.15,0,0,0-4.3,0V37.48a7.45,7.45,0,0,0,.92,3.61,8.23,8.23,0,0,0,1.33,1.76A7.42,7.42,0,0,0,68.45,45h.43a7.36,7.36,0,0,0,3.39-.91,7.27,7.27,0,0,0,1.65-1.22,7.75,7.75,0,0,0,1.33-1.77,7.38,7.38,0,0,0,.92-3.6V12.15A2.14,2.14,0,0,0,74,10Z" transform="translate(0 -8.75)"/><path class="cls-1" d="M4.29,17.51a3.22,3.22,0,1,1,6.44,0,2.15,2.15,0,0,0,4.28.22,1.55,1.55,0,0,0,0-.22,1.48,1.48,0,0,0,0-.21,7.32,7.32,0,0,0-.91-3.39,7.91,7.91,0,0,0-1.33-1.76,7.41,7.41,0,0,0-1.66-1.22A7.54,7.54,0,0,0,7.73,10H7.29a7.49,7.49,0,0,0-3.39.92,7.58,7.58,0,0,0-1.65,1.22A7.91,7.91,0,0,0,.92,13.91,7.38,7.38,0,0,0,0,17.51v20a7.38,7.38,0,0,0,.92,3.6,7.75,7.75,0,0,0,1.33,1.77A7.27,7.27,0,0,0,3.9,44.07,7.36,7.36,0,0,0,7.29,45h.44a7.42,7.42,0,0,0,5-2.13,7.75,7.75,0,0,0,1.33-1.77A7.28,7.28,0,0,0,15,37.7a1.55,1.55,0,0,0,0-.22,1.48,1.48,0,0,0,0-.21,2.15,2.15,0,0,0-4.28.21,3.22,3.22,0,1,1-6.44,0V29.65h8.59a2.15,2.15,0,0,0,0-4.3H4.29V17.51Z" transform="translate(0 -8.75)"/><path class="cls-1" d="M34.05,33.18l-2.93-4.6-1.33-2.09h0l-.15-.23L28.82,25l-3.59-5.65a3.22,3.22,0,1,1,5.89-1.81,2.15,2.15,0,0,0,4.28.22V17.3a7.45,7.45,0,0,0-.92-3.39,7.44,7.44,0,0,0-3-3A7.45,7.45,0,0,0,28.11,10h-.43a7.54,7.54,0,0,0-5,2.14,7.66,7.66,0,0,0-1.34,1.76,7.49,7.49,0,0,0-.92,3.6,7.65,7.65,0,0,0,.91,3.59l.52.81,2.87,4.52L26,28.52l.14.23L27,30l3.57,5.62.19.29a3.22,3.22,0,1,1-6.05,1.53,2.15,2.15,0,0,0-4.29-.21,1.48,1.48,0,0,0,0,.21,1.55,1.55,0,0,0,0,.22,7.42,7.42,0,0,0,2.25,5.15,7.62,7.62,0,0,0,1.65,1.23,7.51,7.51,0,0,0,3.39.91h.43a7.41,7.41,0,0,0,3.39-.91,7.71,7.71,0,0,0,1.65-1.23,7.16,7.16,0,0,0,1.33-1.76,7.45,7.45,0,0,0,.92-3.61,7.37,7.37,0,0,0-1-3.76Z" transform="translate(0 -8.75)"/><path class="cls-1" d="M57.3,41.32l-1.51-1.51-.29-.29a7.29,7.29,0,0,0,.29-2v-20a7.52,7.52,0,0,0-2.26-5.36,7.27,7.27,0,0,0-1.65-1.22A7.36,7.36,0,0,0,48.49,10h-.43a7.32,7.32,0,0,0-3.39.91A7.06,7.06,0,0,0,43,12.14a7.21,7.21,0,0,0-1.33,1.77,7.37,7.37,0,0,0-.92,3.59v20a7.51,7.51,0,0,0,.91,3.6A7.62,7.62,0,0,0,43,42.84a7.77,7.77,0,0,0,1.66,1.23,7.41,7.41,0,0,0,3.39.91h.43a7.36,7.36,0,0,0,3.39-.91,6.84,6.84,0,0,0,1.24-.86l1.15,1.15a1.9,1.9,0,0,0,.45.34,2,2,0,0,0,1.07.29,2.15,2.15,0,0,0,1.51-3.67ZM45.05,37.48v-20a3.22,3.22,0,0,1,6.44,0V35.62A2.14,2.14,0,0,0,48.91,39l1.16,1.16a3.17,3.17,0,0,1-1.8.55A3.22,3.22,0,0,1,45.05,37.48Z" transform="translate(0 -8.75)"/></svg>