<svg id="Capa_1" data-name="Capa 1" xmlns="http://www.w3.org/2000/svg" viewBox="0 0 219.48 50"><defs><style>.cls-1{fill:#05587b;}.cls-2{fill:#76b1bb;}.cls-3{fill:#85d0f1;}.cls-4{fill:#e42927;}.cls-5{fill:#ea5822;}.cls-6{fill:#ffd902;}.cls-7{fill:#7d8086;}</style></defs><path class="cls-1" d="M26.51,44.24v4.85l-5.58,2.43a25,25,0,0,1-10.14-5.86l-.67-6,4.19-2.42.47,4.25a1.47,1.47,0,0,0,.2.6,1.59,1.59,0,0,0,1.52.78,1.58,1.58,0,0,0,1.38-1.71l-.62-5.63,9.25-5.33V40.84l-5.18,2.27a1.58,1.58,0,0,0-.81.87,1.56,1.56,0,0,0,0,1.18,1.59,1.59,0,0,0,1.44.93A1.5,1.5,0,0,0,22.6,46Z" transform="translate(-3 -2.5)"/><path class="cls-2" d="M15.73,22.16,25,27.5l-9.25,5.34-4.56-3.35A1.62,1.62,0,0,0,10,29.22a1.55,1.55,0,0,0-1.1,2.32,1.39,1.39,0,0,0,.43.47l3.44,2.53L8.58,37,3.69,33.36a25.19,25.19,0,0,1,0-11.71L8.58,18l4.2,2.42L9.34,23a1.39,1.39,0,0,0-.43.47A1.58,1.58,0,0,0,9,25.17a1.57,1.57,0,0,0,2.17.34Z" transform="translate(-3 -2.5)"/><path class="cls-3" d="M26.51,14.17V24.85l-9.25-5.34.62-5.62a1.54,1.54,0,0,0-.35-1.15,1.55,1.55,0,0,0-1-.57A1.58,1.58,0,0,0,15,13a1.38,1.38,0,0,0-.2.6l-.47,4.25-4.19-2.43.68-6A25,25,0,0,1,20.93,3.48l5.58,2.44v4.84L22.6,9.05A1.36,1.36,0,0,0,22,8.92a1.58,1.58,0,0,0-1.44.92,1.58,1.58,0,0,0,.79,2.05Z" transform="translate(-3 -2.5)"/><path class="cls-4" d="M36,33.84l13,7.49A25,25,0,0,1,29.57,52.5v-15A10.33,10.33,0,0,0,31.74,37l3.89,6.75a1.53,1.53,0,0,0,2.66-1.53l-3.9-6.76A10.13,10.13,0,0,0,36,33.84Z" transform="translate(-3 -2.5)"/><path class="cls-5" d="M50.47,16.32a25.08,25.08,0,0,1,0,22.36l-13-7.49A9.83,9.83,0,0,0,38.07,29h7.77a1.53,1.53,0,0,0,0-3.06H38.07a9.83,9.83,0,0,0-.58-2.16Z" transform="translate(-3 -2.5)"/><path class="cls-6" d="M48.94,13.67,36,21.16a10.33,10.33,0,0,0-1.59-1.58l3.9-6.75a1.53,1.53,0,0,0-2.65-1.53l-3.9,6.75a10.15,10.15,0,0,0-2.15-.57V2.5A25,25,0,0,1,48.94,13.67Z" transform="translate(-3 -2.5)"/><path class="cls-7" d="M221,13.34h-.85L219.54,12H219v1.32h-.72V10h1.31c.78,0,1.07.23,1.07.76a1,1,0,0,1-.65.89v.09a.47.47,0,0,1,.34.25C220.58,12.44,220.81,12.89,221,13.34Zm-1.53-2.77H219v.91h.38a.49.49,0,0,0,.51-.51C219.91,10.66,219.81,10.57,219.5,10.57Z" transform="translate(-3 -2.5)"/><path class="cls-7" d="M219.48,8.75a3,3,0,1,0,3,3A3,3,0,0,0,219.48,8.75Zm0,5.55A2.55,2.55,0,1,1,222,11.75,2.55,2.55,0,0,1,219.48,14.3Z" transform="translate(-3 -2.5)"/><path class="cls-7" d="M217.38,41.08a2.1,2.1,0,0,0-1.22-.38H210.8a3.22,3.22,0,0,1-3.22-3.22V12.15a2.15,2.15,0,0,0-4.29,0V37.48A7.49,7.49,0,0,0,204,40.7a3.39,3.39,0,0,0,.2.38,7.75,7.75,0,0,0,1.33,1.77A7.59,7.59,0,0,0,210.8,45h5.36a2.15,2.15,0,0,0,1.22-3.91Z" transform="translate(-3 -2.5)"/><path class="cls-7" d="M195.68,12.15a7.61,7.61,0,0,0-5-2.14h-.43a7.45,7.45,0,0,0-3.39.92,7.35,7.35,0,0,0-1.65,1.22,7.14,7.14,0,0,0-1.34,1.76,7.38,7.38,0,0,0-.92,3.6V42.85a2.15,2.15,0,0,0,4.29,0V29.65h6.43v13.2a2.15,2.15,0,0,0,4.3,0V17.51a7.38,7.38,0,0,0-.92-3.6A7.91,7.91,0,0,0,195.68,12.15Zm-8.48,13.2V17.51a3.22,3.22,0,1,1,6.43,0v7.84Z" transform="translate(-3 -2.5)"/><path class="cls-7" d="M175.29,12.15a7.54,7.54,0,0,0-5-2.14h-.44a7.52,7.52,0,0,0-3.39.92,7.29,7.29,0,0,0-1.64,1.22l-.11.11-.11-.11a7.58,7.58,0,0,0-1.65-1.22,7.49,7.49,0,0,0-3.39-.92h-.43a7.49,7.49,0,0,0-3.39.92,7.44,7.44,0,0,0-3,3,7.38,7.38,0,0,0-.92,3.6V42.85a2.15,2.15,0,0,0,4.29,0V17.51a3.22,3.22,0,1,1,6.43,0V42.85a2.15,2.15,0,0,0,4.29,0V17.51a3.22,3.22,0,1,1,6.44,0V42.85a2.15,2.15,0,0,0,4.29,0V17.51a7.52,7.52,0,0,0-2.25-5.36Z" transform="translate(-3 -2.5)"/><path class="cls-7" d="M144.29,10a2.14,2.14,0,0,0-2.15,2.14v30.7a2.15,2.15,0,0,0,4.3,0V12.15A2.14,2.14,0,0,0,144.29,10Z" transform="translate(-3 -2.5)"/><path class="cls-7" d="M134.63,10a2.14,2.14,0,0,0-2.14,2.14V37.48a3.22,3.22,0,1,1-6.44,0V12.15a2.15,2.15,0,0,0-4.29,0V37.48a7.45,7.45,0,0,0,.92,3.61A7.91,7.91,0,0,0,124,42.85a7.39,7.39,0,0,0,1.65,1.23,7.51,7.51,0,0,0,3.39.9h.44a7.39,7.39,0,0,0,3.39-.91,7.27,7.27,0,0,0,1.65-1.22,7.75,7.75,0,0,0,1.33-1.77,7.49,7.49,0,0,0,.92-3.6V12.15A2.14,2.14,0,0,0,134.63,10Z" transform="translate(-3 -2.5)"/><path class="cls-7" d="M64.9,17.51a3.22,3.22,0,1,1,6.43,0,2.15,2.15,0,0,0,4.29.22,1.55,1.55,0,0,0,0-.22,1.48,1.48,0,0,0,0-.21,7.45,7.45,0,0,0-.91-3.39,7.66,7.66,0,0,0-1.34-1.76,7.13,7.13,0,0,0-1.65-1.22A7.58,7.58,0,0,0,68.34,10H67.9a7.45,7.45,0,0,0-3.39.92,7.5,7.5,0,0,0-3.9,6.58v20a7.38,7.38,0,0,0,.92,3.6,7.21,7.21,0,0,0,1.33,1.77,7.06,7.06,0,0,0,1.65,1.22A7.32,7.32,0,0,0,67.9,45h.44a7.43,7.43,0,0,0,3.38-.9,7.17,7.17,0,0,0,1.65-1.23,7.51,7.51,0,0,0,1.34-1.77,7.41,7.41,0,0,0,.91-3.38,1.55,1.55,0,0,0,0-.22,1.48,1.48,0,0,0,0-.21,2.15,2.15,0,0,0-4.29.21,3.22,3.22,0,1,1-6.43,0V29.65h8.58a2.15,2.15,0,0,0,0-4.3H64.9V17.51Z" transform="translate(-3 -2.5)"/><path class="cls-7" d="M94.66,33.18l-2.94-4.6L90.4,26.49h0l-.15-.23L89.42,25l-3.59-5.65a3.3,3.3,0,0,1-.55-1.81,3.22,3.22,0,0,1,6.44,0,2.15,2.15,0,0,0,4.28.22,1.55,1.55,0,0,0,0-.22,1.48,1.48,0,0,0,0-.21,7.32,7.32,0,0,0-.91-3.39,7.91,7.91,0,0,0-1.33-1.76,7.61,7.61,0,0,0-5-2.14h-.43a7.45,7.45,0,0,0-3.39.92,7.35,7.35,0,0,0-1.65,1.22,7.66,7.66,0,0,0-1.34,1.76,7.38,7.38,0,0,0-.92,3.6,7.53,7.53,0,0,0,.91,3.59l.51.81,2.87,4.52,1.34,2.09.13.23L87.58,30l3.57,5.62.19.29a3.33,3.33,0,0,1,.38,1.53,3.22,3.22,0,1,1-6.44,0A2.15,2.15,0,0,0,81,37.27a1.48,1.48,0,0,0,0,.21,1.55,1.55,0,0,0,0,.22,7.36,7.36,0,0,0,.91,3.39A7.48,7.48,0,0,0,88.29,45h.43a7.45,7.45,0,0,0,3.39-.91,8,8,0,0,0,1.65-1.23,7.69,7.69,0,0,0,1.33-1.76A7.45,7.45,0,0,0,96,37.48a7.37,7.37,0,0,0-1-3.76Z" transform="translate(-3 -2.5)"/><path class="cls-7" d="M117.91,41.32l-1.52-1.51-.28-.29a7.67,7.67,0,0,0,.28-2v-20a7.37,7.37,0,0,0-.92-3.59,7.55,7.55,0,0,0-3-3A7.39,7.39,0,0,0,109.1,10h-.44a7.32,7.32,0,0,0-3.38.91,6.85,6.85,0,0,0-1.65,1.22,7.52,7.52,0,0,0-2.26,5.36v20a7.52,7.52,0,0,0,.92,3.6,7.35,7.35,0,0,0,1.33,1.76,7.71,7.71,0,0,0,1.65,1.23,7.45,7.45,0,0,0,3.39.91h.44a7.39,7.39,0,0,0,3.39-.91,7.61,7.61,0,0,0,1.24-.86l1.15,1.15a1.9,1.9,0,0,0,.45.34,2,2,0,0,0,1.06.29,2.15,2.15,0,0,0,1.52-3.67Zm-12.25-3.84v-20a3.22,3.22,0,0,1,6.44,0V35.62a2.16,2.16,0,0,0-.81-.27A2.14,2.14,0,0,0,109.51,39l1.16,1.16a3.13,3.13,0,0,1-1.79.55A3.22,3.22,0,0,1,105.66,37.48Z" transform="translate(-3 -2.5)"/></svg>