<?xml version="1.0" encoding="utf-8"?>
<!-- Generator: Adobe Illustrator 25.0.1, SVG Export Plug-In . SVG Version: 6.00 Build 0)  -->
<svg version="1.0" id="Capa_1" xmlns="http://www.w3.org/2000/svg" xmlns:xlink="http://www.w3.org/1999/xlink" x="0px" y="0px"
	 viewBox="0 0 55 55" style="enable-background:new 0 0 55 55;" xml:space="preserve">
<style type="text/css">
	.st0{fill:#005779;}
	.st1{fill:#80B4BF;}
	.st2{fill:#91D2F3;}
	.st3{fill:#E01F1D;}
	.st4{fill:#E8540D;}
	.st5{fill:#FFD800;}
</style>
<g>
	<g>
		<path class="st0" d="M25.86,45.3v5.14l-5.93,2.59c-4.09-1.21-7.76-3.37-10.77-6.23l-0.72-6.42l4.46-2.57l0.5,4.51
			c0.02,0.23,0.09,0.44,0.21,0.64c0.33,0.57,0.98,0.9,1.62,0.84c0.44-0.06,0.82-0.27,1.09-0.61c0.28-0.34,0.42-0.79,0.37-1.21
			l-0.66-5.98l9.83-5.67v11.35l-5.51,2.42c-0.39,0.17-0.7,0.51-0.86,0.93c-0.16,0.41-0.15,0.85,0.02,1.25
			c0.26,0.59,0.88,0.99,1.53,0.99c0.23,0,0.45-0.04,0.66-0.14L25.86,45.3z"/>
		<path class="st1" d="M14.41,21.83l9.83,5.68l-9.83,5.67l-4.85-3.56c-0.34-0.25-0.79-0.36-1.24-0.29
			c-0.43,0.07-0.81,0.29-1.07,0.64c-0.38,0.52-0.42,1.25-0.09,1.82c0.11,0.2,0.26,0.37,0.45,0.5l3.66,2.69l-4.46,2.57l-5.2-3.84
			c-0.48-1.99-0.73-4.08-0.73-6.22c0-2.14,0.25-4.23,0.73-6.22l5.2-3.84l4.46,2.57l-3.66,2.69c-0.19,0.13-0.34,0.3-0.45,0.5
			c-0.33,0.57-0.29,1.3,0.09,1.82c0.27,0.35,0.64,0.58,1.07,0.64c0.44,0.07,0.89-0.04,1.23-0.29L14.41,21.83z"/>
		<path class="st2" d="M25.86,13.33v11.35l-9.83-5.68l0.66-5.98c0.05-0.42-0.09-0.87-0.37-1.21c-0.27-0.34-0.66-0.55-1.1-0.61
			c-0.64-0.07-1.29,0.27-1.62,0.83c-0.11,0.2-0.19,0.41-0.21,0.64l-0.5,4.52l-4.46-2.57L9.16,8.2c3.01-2.86,6.68-5.02,10.76-6.23
			l5.93,2.59v5.14L21.7,7.89c-0.21-0.1-0.43-0.14-0.66-0.14c-0.66,0-1.27,0.4-1.53,0.99c-0.17,0.41-0.18,0.84-0.02,1.25
			c0.16,0.42,0.48,0.75,0.86,0.92L25.86,13.33z"/>
		<path class="st3" d="M35.91,34.24L49.7,42.2c-4.49,6.76-11.98,11.36-20.58,11.87V38.15c0.8-0.12,1.57-0.33,2.3-0.61l4.14,7.18
			c0.45,0.78,1.44,1.04,2.22,0.6c0.79-0.45,1.05-1.45,0.6-2.22l-4.14-7.18C34.85,35.41,35.41,34.85,35.91,34.24z"/>
		<path class="st4" d="M51.33,15.62c1.79,3.58,2.79,7.61,2.79,11.88c0,4.27-1.01,8.31-2.79,11.88l-13.79-7.96
			c0.28-0.73,0.49-1.5,0.62-2.29l8.25,0c0.9,0,1.62-0.73,1.62-1.62c0-0.91-0.73-1.63-1.62-1.63l-8.25,0
			c-0.12-0.8-0.33-1.56-0.62-2.29L51.33,15.62z"/>
		<path class="st5" d="M49.7,12.8l-13.79,7.96c-0.5-0.62-1.06-1.19-1.68-1.68l4.14-7.17c0.45-0.78,0.18-1.77-0.59-2.22
			c-0.78-0.45-1.77-0.19-2.22,0.59l-4.14,7.18c-0.73-0.28-1.49-0.49-2.29-0.61V0.93C37.72,1.44,45.21,6.04,49.7,12.8z"/>
	</g>
</g>
</svg>
